<svg width="59" height="20" viewBox="0 0 59 20" fill="none" xmlns="http://www.w3.org/2000/svg">
<path d="M51.6258 12.1918C49.6394 13.1066 49.0829 14.2616 49 15.6338C50.8443 16.1244 52.5731 16.2196 54.5595 15.3047C56.5459 14.3899 58.3398 12.4381 59 11.0224C56.7946 10.9002 53.6122 11.2769 51.6258 12.1918Z" fill="white"/>
<path d="M37.935 6.59096C36.7891 6.92824 35.6954 7.42225 34.6847 8.05899C34.8128 8.74509 34.8595 9.44392 34.8238 10.141C34.78 11.236 34.446 12.2998 33.8559 13.2233C33.3014 14.0336 32.5882 14.7228 31.7595 15.2493C31.3984 15.4497 30.8873 15.782 30.8873 15.782C31.2959 16.0515 31.7317 16.2772 32.1874 16.4555C33.3503 16.7426 36.7793 16.5621 38.9968 14.6047C41.2142 12.6473 42.7003 8.78308 43 5.83798C41.2825 5.82034 39.5731 6.07447 37.935 6.59096Z" fill="white"/>
<path d="M23.0668 6.59095C24.2127 6.92824 25.3065 7.42225 26.3171 8.05899C26.189 8.74509 26.1423 9.44392 26.178 10.141C26.2212 11.2359 26.5546 12.2996 27.1441 13.2233C27.6986 14.0336 28.4118 14.7228 29.2405 15.2493C29.6017 15.4497 30.1127 15.782 30.1127 15.782C29.7041 16.0515 29.2684 16.2772 28.8126 16.4555C27.6497 16.7426 24.2207 16.5621 22.0033 14.6047C19.7859 12.6473 18.2998 8.78308 18 5.83798C19.7181 5.82015 21.4282 6.07428 23.0668 6.59095Z" fill="white"/>
<path d="M34.1322 7.51547C33.9129 6.64583 33.6106 5.79927 33.2293 4.98748C32.5288 3.45501 31.5991 2.03814 30.472 0.785611C28.9444 2.41074 27.4023 5.08138 26.8064 7.58409C26.6437 8.24002 26.5576 8.91263 26.55 9.58842C26.55 11.9774 27.5757 13.5483 29.2116 14.825C29.6163 15.1357 30.0383 15.4233 30.4756 15.6863C30.8815 15.4413 31.2745 15.1755 31.6529 14.89C32.2211 14.4676 32.7306 13.9715 33.1679 13.4147C33.948 12.3999 34.3976 11.1756 34.3976 9.59383C34.3916 8.89299 34.3025 8.19533 34.1322 7.51547Z" fill="white"/>
<path d="M33.892 18.5338C36.281 19.0213 39.9971 19.3608 42.6984 19.4366C42.5883 18.6511 41.2178 16.9267 38.9678 16.3272C36.7179 15.7277 33.7151 17.8368 31.225 16.3489C31.0054 16.201 30.769 16.0798 30.5208 15.9877C30.3035 16.0813 30.0945 16.1931 29.896 16.3218C27.498 17.5262 24.2333 15.7349 21.9834 16.3362C19.7335 16.9375 18.4569 18.6602 18.3449 19.4456C21.0535 19.3698 24.7624 19.0321 27.1513 18.5428C27.0196 18.4276 26.9211 18.2792 26.866 18.113C27.368 18.6891 28.9029 19.3138 30.4991 19.7129C32.1116 19.3156 33.7494 18.6421 34.1863 18.0408C34.1462 18.2334 34.0425 18.407 33.892 18.5338Z" fill="white"/>
<path d="M7.37419 12.1922C9.36057 13.1069 9.91711 14.2617 10 15.6339C8.15571 16.1244 6.42689 16.2196 4.4405 15.3048C2.45412 14.3901 0.660155 12.4384 4.35116e-07 11.0229C2.20545 10.8987 5.39076 11.2795 7.37419 12.1922Z" fill="white"/>
</svg>
