<svg width="45" height="45" viewBox="0 0 45 45" fill="none" xmlns="http://www.w3.org/2000/svg">
<path d="M42.4038 16.5678C41.3713 16.5687 40.3813 16.9857 39.6512 17.7272C38.9211 18.4687 38.5105 19.4742 38.5096 20.5229V26.6752C38.511 27.6476 38.8646 28.5854 39.5029 29.3101C40.1413 30.0348 41.0198 30.4957 41.9712 30.605V33.267H34.9775C34.6499 33.5971 34.2514 33.8455 33.8133 33.9927C33.3751 34.1398 32.9094 34.1817 32.4526 34.115V42.4955C32.4526 42.6121 32.4982 42.7238 32.5793 42.8063C32.6605 42.8887 32.7706 42.935 32.8853 42.935C33.0001 42.935 33.1101 42.8887 33.1913 42.8063C33.2724 42.7238 33.318 42.6121 33.318 42.4955V37.6615H41.9718V42.4955C41.9718 42.6121 42.0174 42.7238 42.0986 42.8063C42.1797 42.8887 42.2898 42.935 42.4045 42.935C42.5193 42.935 42.6294 42.8887 42.7105 42.8063C42.7916 42.7238 42.8372 42.6121 42.8372 42.4955V17.0072C42.837 16.8906 42.7913 16.7788 42.7101 16.6964C42.6288 16.6141 42.5187 16.5678 42.4038 16.5678ZM23.0608 8.95434C23.2282 8.94745 23.3926 8.90702 23.5446 8.83537C23.6965 8.76372 23.833 8.66226 23.9463 8.53683C24.0595 8.4114 24.1472 8.26448 24.2043 8.1045C24.2614 7.94453 24.2868 7.77467 24.2791 7.60469C24.2713 7.43471 24.2305 7.26797 24.1591 7.11404C24.0877 6.96012 23.987 6.82207 23.8628 6.70781C23.7386 6.59355 23.5935 6.50535 23.4356 6.44829C23.2778 6.39122 23.1104 6.36641 22.9431 6.37528L22.4668 6.39778L22.4446 5.91473C22.4378 5.74471 22.398 5.57772 22.3275 5.42338C22.2569 5.26904 22.157 5.13038 22.0335 5.01539C21.91 4.9004 21.7654 4.81134 21.6079 4.75334C21.4503 4.69534 21.2831 4.66953 21.1157 4.67741C20.9484 4.68529 20.7842 4.72669 20.6326 4.79925C20.4811 4.8718 20.3451 4.97406 20.2326 5.10016C20.1202 5.22626 20.0333 5.3737 19.9771 5.53401C19.9209 5.69432 19.8965 5.86433 19.9052 6.03426L20.0451 9.09637L23.0608 8.95434Z" fill="white"/>
<path d="M27.6923 5.56238C28.1702 5.56238 28.5577 5.16888 28.5577 4.68347C28.5577 4.19807 28.1702 3.80457 27.6923 3.80457C27.2144 3.80457 26.8269 4.19807 26.8269 4.68347C26.8269 5.16888 27.2144 5.56238 27.6923 5.56238Z" fill="white"/>
<path d="M20.7692 14.3705C21.2472 14.3705 21.6346 13.977 21.6346 13.4916C21.6346 13.0062 21.2472 12.6127 20.7692 12.6127C20.2913 12.6127 19.9038 13.0062 19.9038 13.4916C19.9038 13.977 20.2913 14.3705 20.7692 14.3705Z" fill="white"/>
<path d="M17.3077 3.82361C17.7856 3.82361 18.1731 3.43011 18.1731 2.9447C18.1731 2.4593 17.7856 2.0658 17.3077 2.0658C16.8298 2.0658 16.4423 2.4593 16.4423 2.9447C16.4423 3.43011 16.8298 3.82361 17.3077 3.82361Z" fill="white"/>
<path d="M12.0282 34.1445C11.2744 34.1199 10.5578 33.8064 10.0225 33.267H3.02884V30.6049C3.98019 30.4957 4.85872 30.0348 5.49706 29.3101C6.13541 28.5854 6.48897 27.6475 6.49038 26.6752V20.5228C6.48947 19.4742 6.07889 18.4687 5.34878 17.7272C4.61867 16.9857 3.62869 16.5687 2.59615 16.5677C2.48139 16.5677 2.37134 16.614 2.29019 16.6965C2.20905 16.7789 2.16346 16.8907 2.16346 17.0072V42.4955C2.16346 42.612 2.20905 42.7238 2.29019 42.8062C2.37134 42.8886 2.48139 42.9349 2.59615 42.9349C2.71091 42.9349 2.82097 42.8886 2.90211 42.8062C2.98326 42.7238 3.02884 42.612 3.02884 42.4955V37.6615H11.6827V42.4955C11.6827 42.612 11.7283 42.7238 11.8094 42.8062C11.8906 42.8886 12.0006 42.9349 12.1154 42.9349C12.2301 42.9349 12.3402 42.8886 12.4213 42.8062C12.5025 42.7238 12.5481 42.612 12.5481 42.4955V34.1149C12.4068 34.1355 12.2643 34.1458 12.1216 34.1459L12.0282 34.1445Z" fill="white"/>
<path d="M32.9455 33.2655C34.1045 33.2332 35.0481 32.2235 35.0481 31.0141V21.0937C35.047 20.1266 34.6682 19.1994 33.9949 18.5156C33.3215 17.8317 32.4086 17.447 31.4564 17.4459H30.2885V13.893C30.893 13.7884 31.4416 13.4701 31.8375 12.9945C32.2334 12.5188 32.451 11.9164 32.4519 11.2936V8.21741C32.4519 8.10086 32.4063 7.98908 32.3252 7.90667C32.244 7.82425 32.134 7.77795 32.0192 7.77795H27.6923C27.5775 7.77795 27.4675 7.82425 27.3863 7.90667C27.3052 7.98908 27.2596 8.10086 27.2596 8.21741V11.2936C27.2605 11.9164 27.4781 12.5188 27.874 12.9945C28.2699 13.4701 28.8186 13.7884 29.4231 13.893V17.4459H14.7115V13.893C15.3161 13.7884 15.8647 13.4701 16.2606 12.9945C16.6565 12.5188 16.8741 11.9164 16.875 11.2936V8.21741C16.875 8.10086 16.8294 7.98908 16.7483 7.90667C16.6671 7.82425 16.5571 7.77795 16.4423 7.77795H12.1154C12.0006 7.77795 11.8906 7.82425 11.8094 7.90667C11.7283 7.98908 11.6827 8.10086 11.6827 8.21741V11.2936C11.6836 11.9164 11.9012 12.5188 12.2971 12.9945C12.693 13.4701 13.2416 13.7884 13.8462 13.893V17.4459H13.5429C12.5907 17.447 11.6779 17.8317 11.0047 18.5156C10.3314 19.1995 9.95284 20.1267 9.95192 21.0937V31.0141C9.95192 32.2228 10.8948 33.2332 12.0545 33.2655C12.3438 33.2751 12.6321 33.2249 12.9019 33.1181C13.1717 33.0112 13.4173 32.85 13.6239 32.644C14.0462 32.2263 14.2788 31.6673 14.2788 31.069V23.1588C14.2788 23.0423 14.3244 22.9305 14.4056 22.8481C14.4867 22.7657 14.5968 22.7194 14.7115 22.7194C14.8263 22.7194 14.9363 22.7657 15.0175 22.8481C15.0986 22.9305 15.1442 23.0423 15.1442 23.1588V31.069C15.1442 32.2805 16.1148 33.2662 17.3077 33.2662C18.5005 33.2662 19.4712 32.2805 19.4712 31.069V20.5221C19.4712 20.4055 19.5167 20.2938 19.5979 20.2114C19.679 20.1289 19.7891 20.0826 19.9038 20.0826C20.0186 20.0826 20.1287 20.1289 20.2098 20.2114C20.2909 20.2938 20.3365 20.4055 20.3365 20.5221V31.069C20.3365 32.2805 21.3072 33.2662 22.5 33.2662C23.6928 33.2662 24.6635 32.2805 24.6635 31.069V27.5533C24.6635 27.4368 24.709 27.325 24.7902 27.2426C24.8713 27.1602 24.9814 27.1139 25.0962 27.1139C25.2109 27.1139 25.321 27.1602 25.4021 27.2426C25.4833 27.325 25.5288 27.4368 25.5288 27.5533V31.069C25.5288 32.2805 26.4995 33.2662 27.6923 33.2662C28.8852 33.2662 29.8558 32.2805 29.8558 31.069V22.2799C29.8558 22.1634 29.9014 22.0516 29.9825 21.9692C30.0636 21.8868 30.1737 21.8405 30.2885 21.8405C30.4032 21.8405 30.5133 21.8868 30.5944 21.9692C30.6756 22.0516 30.7212 22.1634 30.7212 22.2799V31.069C30.7212 31.6673 30.9538 32.2263 31.3761 32.644C31.7984 33.0616 32.355 33.2831 32.9455 33.2655ZM26.8269 42.056H23.7981V33.8477C23.4042 34.0383 22.9645 34.1451 22.5 34.1451C22.0355 34.1451 21.5958 34.0383 21.2019 33.8477V42.0553H18.1731C18.0583 42.0553 17.9483 42.1016 17.8671 42.184C17.786 42.2664 17.7404 42.3782 17.7404 42.4948C17.7404 42.6113 17.786 42.7231 17.8671 42.8055C17.9483 42.8879 18.0583 42.9342 18.1731 42.9342H26.8269C26.9386 42.9297 27.0442 42.8814 27.1216 42.7996C27.1991 42.7177 27.2423 42.6086 27.2423 42.4951C27.2423 42.3816 27.1991 42.2725 27.1216 42.1906C27.0442 42.1088 26.9386 42.0605 26.8269 42.056Z" fill="white"/>
</svg>
