<svg width="88" height="113" viewBox="0 0 88 113" fill="none" xmlns="http://www.w3.org/2000/svg">
<g filter="url(#filter0_d_24_65)">
<path d="M83.9773 101.843L83.4561 98.0821C82.1591 88.7962 79.3953 79.7773 75.2255 71.2923C72.789 66.336 69.8677 61.5654 66.5463 57.1082L60.0734 48.4259L72.9224 17.0976C73.1284 16.5869 73.1405 16.0298 72.9708 15.519L68.1222 1.59021C67.7949 0.638404 66.8615 0 65.819 0H58.546C57.2126 0 56.1217 1.04466 56.1217 2.32147V14.0913C50.9821 14.7994 46.5698 17.7244 44 21.8102C41.4302 17.7128 37.0179 14.7994 31.8783 14.0913V2.32147C31.8783 1.04466 30.7874 0 29.454 0H22.1809C21.1385 0 20.2172 0.638404 19.8778 1.59021L15.0291 15.519C14.8473 16.0298 14.8594 16.5985 15.0776 17.0976L27.9266 48.4259L21.4536 57.1082C18.1323 61.5654 15.211 66.336 12.7745 71.2923C8.60465 79.7773 5.84091 88.7846 4.54388 98.0821L4.02265 101.843C3.92568 102.505 4.14387 103.178 4.60449 103.677C5.06512 104.176 5.71969 104.466 6.42275 104.466H81.5772C82.2803 104.466 82.9349 104.176 83.3955 103.677C83.8561 103.178 84.0743 102.505 83.9773 101.843ZM64.0735 4.64294L67.31 13.9288H60.9704V4.64294H64.0735ZM41.5757 30.1791C41.5757 31.4559 42.6666 32.5006 44 32.5006C45.3334 32.5006 46.4243 31.4559 46.4243 30.1791C46.4243 23.7835 51.867 18.5718 58.546 18.5718H67.1161L55.6853 46.4294H51.2488H51.2366H36.7633H36.7512H32.3147L20.8839 18.5718H29.454C36.133 18.5718 41.5757 23.7835 41.5757 30.1791ZM23.9265 4.64294H27.0296V13.9288H20.69L23.9265 4.64294ZM9.18649 99.8232L9.34407 98.6857C10.5684 89.8641 13.1988 81.3095 17.1504 73.2656C19.4657 68.5646 22.2294 64.0378 25.3811 59.8127L31.9147 51.0723H33.7087L29.5146 69.145C29.2237 70.3986 30.0479 71.6406 31.3571 71.9191C31.5268 71.9424 31.7086 71.9656 31.8783 71.9656C32.9935 71.9656 33.9875 71.2343 34.242 70.1432L38.6665 51.0723H41.5757V83.5729C41.5757 84.8497 42.6666 85.8944 44 85.8944C45.3334 85.8944 46.4243 84.8497 46.4243 83.5729V51.0723H49.3335L53.758 70.1432C54.0125 71.2343 55.0065 71.9656 56.1217 71.9656C56.2914 71.9656 56.4732 71.9424 56.655 71.9075C57.9642 71.629 58.7885 70.387 58.4975 69.1334L54.2913 51.0723H56.0853L62.6068 59.8011C65.7584 64.0261 68.5343 68.553 70.8374 73.254C74.7891 81.3095 77.4195 89.8525 78.6559 98.6741L78.8135 99.8232H9.18649Z" fill="#325338"/>
</g>
<defs>
<filter id="filter0_d_24_65" x="0" y="0" width="88" height="112.466" filterUnits="userSpaceOnUse" color-interpolation-filters="sRGB">
<feFlood flood-opacity="0" result="BackgroundImageFix"/>
<feColorMatrix in="SourceAlpha" type="matrix" values="0 0 0 0 0 0 0 0 0 0 0 0 0 0 0 0 0 0 127 0" result="hardAlpha"/>
<feOffset dy="4"/>
<feGaussianBlur stdDeviation="2"/>
<feComposite in2="hardAlpha" operator="out"/>
<feColorMatrix type="matrix" values="0 0 0 0 0 0 0 0 0 0 0 0 0 0 0 0 0 0 0.25 0"/>
<feBlend mode="normal" in2="BackgroundImageFix" result="effect1_dropShadow_24_65"/>
<feBlend mode="normal" in="SourceGraphic" in2="effect1_dropShadow_24_65" result="shape"/>
</filter>
</defs>
</svg>
