<svg width="356" height="79" viewBox="0 0 356 79" fill="none" xmlns="http://www.w3.org/2000/svg">
<g opacity="0.9" filter="url(#filter0_d_38_42)">
<path d="M346.148 61.6068C346.65 62.5712 347.066 63.5832 347.388 64.6286C348.007 66.5881 348.344 68.6308 348.388 70.6865C345.409 70.3582 342.533 69.2734 340.003 67.5234C339.352 67.0644 338.752 66.5273 338.214 65.9229C336.334 63.7648 335.96 61.5066 336.326 59.0174C336.418 58.4061 336.543 57.8016 336.7 57.2067C337.23 57.0954 337.766 57.0135 338.305 56.9614C339.109 56.8775 339.922 56.9082 340.723 57.0526C342.278 57.3575 343.699 58.2201 344.748 59.4963C345.29 60.1399 345.76 60.8483 346.148 61.6068Z" fill="white"/>
</g>
<g opacity="0.9" filter="url(#filter1_d_38_42)">
<path d="M14.2187 58.2376C13.7232 59.2021 13.3138 60.214 12.9961 61.2595C12.3857 63.219 12.0532 65.2617 12.01 67.3174C14.9476 66.989 17.783 65.9042 20.2777 64.1543C20.9198 63.6953 21.5118 63.1582 22.0418 62.5538C23.8956 60.3957 24.2641 58.1375 23.9037 55.6482C23.8125 55.037 23.6893 54.4324 23.5346 53.8376C23.012 53.7263 22.4838 53.6444 21.9522 53.5922C21.1594 53.5084 20.3577 53.5391 19.5682 53.6835C18.0343 53.9884 16.6334 54.851 15.5994 56.1272C15.0646 56.7708 14.6011 57.4792 14.2187 58.2376Z" fill="white"/>
</g>
<g opacity="0.9" filter="url(#filter2_d_38_42)">
<path d="M331.432 23.0425C333.488 21.6106 335.655 20.3765 337.906 19.3549C342.052 17.4311 346.423 16.164 350.881 15.5941C350.153 23.0745 347.853 30.3181 344.154 36.7745C343.16 38.4875 342 40.0849 340.694 41.5394C338.817 43.7209 336.5 45.4105 333.929 46.4722C331.359 47.534 328.607 47.9384 325.894 47.653C324.588 47.5618 323.29 47.3887 322.007 47.1345C321.769 45.8582 321.595 44.5675 321.485 43.2681C321.306 41.2959 321.371 39.3006 321.68 37.3347C322.371 33.3958 324.206 29.7665 326.919 26.9733C328.289 25.4935 329.803 24.1754 331.432 23.0425Z" fill="white"/>
</g>
<g opacity="0.9" filter="url(#filter3_d_38_42)">
<path d="M24.2248 16.3941C22.1975 14.9622 20.0611 13.7281 17.8409 12.7065C13.7532 10.7827 9.44302 9.51562 5.04771 8.94569C5.7651 16.4261 8.03336 23.6697 11.6801 30.126C12.6605 31.839 13.8044 33.4365 15.0921 34.891C16.9434 37.0725 19.228 38.762 21.7626 39.8238C24.2971 40.8856 27.0108 41.29 29.6856 41.0045C30.973 40.9134 32.2527 40.7402 33.518 40.486C33.7526 39.2097 33.9244 37.9191 34.0327 36.6197C34.2096 34.6475 34.1449 32.6522 33.8404 30.6862C33.1594 26.7473 31.3501 23.1181 28.6749 20.3249C27.3235 18.8451 25.8313 17.527 24.2248 16.3941Z" fill="white"/>
</g>
<defs>
<filter id="filter0_d_38_42" x="332.2" y="56.9155" width="20.1879" height="21.771" filterUnits="userSpaceOnUse" color-interpolation-filters="sRGB">
<feFlood flood-opacity="0" result="BackgroundImageFix"/>
<feColorMatrix in="SourceAlpha" type="matrix" values="0 0 0 0 0 0 0 0 0 0 0 0 0 0 0 0 0 0 127 0" result="hardAlpha"/>
<feOffset dy="4"/>
<feGaussianBlur stdDeviation="2"/>
<feComposite in2="hardAlpha" operator="out"/>
<feColorMatrix type="matrix" values="0 0 0 0 0 0 0 0 0 0 0 0 0 0 0 0 0 0 0.5 0"/>
<feBlend mode="normal" in2="BackgroundImageFix" result="effect1_dropShadow_38_42"/>
<feBlend mode="normal" in="SourceGraphic" in2="effect1_dropShadow_38_42" result="shape"/>
</filter>
<filter id="filter1_d_38_42" x="8.01003" y="53.5464" width="20.0177" height="21.771" filterUnits="userSpaceOnUse" color-interpolation-filters="sRGB">
<feFlood flood-opacity="0" result="BackgroundImageFix"/>
<feColorMatrix in="SourceAlpha" type="matrix" values="0 0 0 0 0 0 0 0 0 0 0 0 0 0 0 0 0 0 127 0" result="hardAlpha"/>
<feOffset dy="4"/>
<feGaussianBlur stdDeviation="2"/>
<feComposite in2="hardAlpha" operator="out"/>
<feColorMatrix type="matrix" values="0 0 0 0 0 0 0 0 0 0 0 0 0 0 0 0 0 0 0.5 0"/>
<feBlend mode="normal" in2="BackgroundImageFix" result="effect1_dropShadow_38_42"/>
<feBlend mode="normal" in="SourceGraphic" in2="effect1_dropShadow_38_42" result="shape"/>
</filter>
<filter id="filter2_d_38_42" x="317.387" y="15.5942" width="37.4942" height="40.1475" filterUnits="userSpaceOnUse" color-interpolation-filters="sRGB">
<feFlood flood-opacity="0" result="BackgroundImageFix"/>
<feColorMatrix in="SourceAlpha" type="matrix" values="0 0 0 0 0 0 0 0 0 0 0 0 0 0 0 0 0 0 127 0" result="hardAlpha"/>
<feOffset dy="4"/>
<feGaussianBlur stdDeviation="2"/>
<feComposite in2="hardAlpha" operator="out"/>
<feColorMatrix type="matrix" values="0 0 0 0 0 0 0 0 0 0 0 0 0 0 0 0 0 0 0.5 0"/>
<feBlend mode="normal" in2="BackgroundImageFix" result="effect1_dropShadow_38_42"/>
<feBlend mode="normal" in="SourceGraphic" in2="effect1_dropShadow_38_42" result="shape"/>
</filter>
<filter id="filter3_d_38_42" x="1.04771" y="8.9458" width="37.0822" height="40.1475" filterUnits="userSpaceOnUse" color-interpolation-filters="sRGB">
<feFlood flood-opacity="0" result="BackgroundImageFix"/>
<feColorMatrix in="SourceAlpha" type="matrix" values="0 0 0 0 0 0 0 0 0 0 0 0 0 0 0 0 0 0 127 0" result="hardAlpha"/>
<feOffset dy="4"/>
<feGaussianBlur stdDeviation="2"/>
<feComposite in2="hardAlpha" operator="out"/>
<feColorMatrix type="matrix" values="0 0 0 0 0 0 0 0 0 0 0 0 0 0 0 0 0 0 0.5 0"/>
<feBlend mode="normal" in2="BackgroundImageFix" result="effect1_dropShadow_38_42"/>
<feBlend mode="normal" in="SourceGraphic" in2="effect1_dropShadow_38_42" result="shape"/>
</filter>
</defs>
</svg>
