<svg width="40" height="78" viewBox="0 0 40 78" fill="none" xmlns="http://www.w3.org/2000/svg">
<g opacity="0.9" filter="url(#filter0_d_115_12)">
<path d="M14.2187 60.2421C13.7232 61.2493 13.3138 62.3061 12.9961 63.3979C12.3857 65.4442 12.0532 67.5774 12.01 69.7242C14.9476 69.3813 17.783 68.2485 20.2777 66.421C20.9198 65.9416 21.5118 65.3807 22.0418 64.7496C23.8956 62.4958 24.2641 60.1376 23.9037 57.538C23.8125 56.8996 23.6893 56.2683 23.5346 55.6471C23.012 55.5309 22.4838 55.4454 21.9522 55.3909C21.1594 55.3033 20.3577 55.3354 19.5682 55.4862C18.0343 55.8046 16.6334 56.7054 15.5994 58.0382C15.0646 58.7103 14.6011 59.4501 14.2187 60.2421Z" fill="white"/>
</g>
<g opacity="0.9" filter="url(#filter1_d_115_12)">
<path d="M24.2248 16.5443C22.1975 15.049 20.0611 13.7602 17.8409 12.6934C13.7532 10.6843 9.44302 9.36111 5.04771 8.76593C5.7651 16.5778 8.03336 24.1423 11.6801 30.8848C12.6605 32.6737 13.8044 34.342 15.0921 35.8609C16.9434 38.1391 19.228 39.9035 21.7626 41.0123C24.2971 42.1211 27.0108 42.5434 29.6856 42.2454C30.973 42.1502 32.2527 41.9694 33.518 41.7039C33.7526 40.371 33.9244 39.0232 34.0327 37.6662C34.2096 35.6066 34.1449 33.5229 33.8404 31.4698C33.1594 27.3564 31.3501 23.5664 28.6749 20.6494C27.3235 19.104 25.8313 17.7275 24.2248 16.5443Z" fill="white"/>
</g>
<defs>
<filter id="filter0_d_115_12" x="8.01003" y="55.3428" width="20.0177" height="22.3813" filterUnits="userSpaceOnUse" color-interpolation-filters="sRGB">
<feFlood flood-opacity="0" result="BackgroundImageFix"/>
<feColorMatrix in="SourceAlpha" type="matrix" values="0 0 0 0 0 0 0 0 0 0 0 0 0 0 0 0 0 0 127 0" result="hardAlpha"/>
<feOffset dy="4"/>
<feGaussianBlur stdDeviation="2"/>
<feComposite in2="hardAlpha" operator="out"/>
<feColorMatrix type="matrix" values="0 0 0 0 0 0 0 0 0 0 0 0 0 0 0 0 0 0 0.5 0"/>
<feBlend mode="normal" in2="BackgroundImageFix" result="effect1_dropShadow_115_12"/>
<feBlend mode="normal" in="SourceGraphic" in2="effect1_dropShadow_115_12" result="shape"/>
</filter>
<filter id="filter1_d_115_12" x="1.04771" y="8.76587" width="37.0822" height="41.5723" filterUnits="userSpaceOnUse" color-interpolation-filters="sRGB">
<feFlood flood-opacity="0" result="BackgroundImageFix"/>
<feColorMatrix in="SourceAlpha" type="matrix" values="0 0 0 0 0 0 0 0 0 0 0 0 0 0 0 0 0 0 127 0" result="hardAlpha"/>
<feOffset dy="4"/>
<feGaussianBlur stdDeviation="2"/>
<feComposite in2="hardAlpha" operator="out"/>
<feColorMatrix type="matrix" values="0 0 0 0 0 0 0 0 0 0 0 0 0 0 0 0 0 0 0.5 0"/>
<feBlend mode="normal" in2="BackgroundImageFix" result="effect1_dropShadow_115_12"/>
<feBlend mode="normal" in="SourceGraphic" in2="effect1_dropShadow_115_12" result="shape"/>
</filter>
</defs>
</svg>
