<svg width="342" height="355" viewBox="0 0 342 355" fill="none" xmlns="http://www.w3.org/2000/svg">
<path opacity="0.9" d="M171 347.708C264.888 347.708 341 273.944 341 182.951C341 91.9581 264.888 18.1938 171 18.1938C77.1116 18.1938 1 91.9581 1 182.951C1 273.944 77.1116 347.708 171 347.708Z" stroke="#F6F6D7" stroke-width="2" stroke-miterlimit="10"/>
<path opacity="0.9" d="M171 342.654C262.008 342.654 335.785 271.152 335.785 182.951C335.785 94.7491 262.008 23.2476 171 23.2476C79.9916 23.2476 6.21472 94.7491 6.21472 182.951C6.21472 271.152 79.9916 342.654 171 342.654Z" stroke="#F6F6D7" stroke-miterlimit="10"/>
<g opacity="0.9">
<path d="M191.722 328.119C189.338 328.796 187.061 329.789 184.957 331.07C185.225 332.456 185.323 333.869 185.249 335.278C185.157 337.497 184.457 339.652 183.221 341.522C182.064 343.16 180.577 344.553 178.848 345.618C178.106 346.025 177.022 346.692 177.022 346.692C177.875 347.238 178.785 347.695 179.738 348.056C182.174 348.646 189.317 348.268 193.939 344.314C198.561 340.359 201.661 332.545 202.288 326.608C198.706 326.568 195.14 327.078 191.722 328.119Z" fill="#F6F6D7"/>
<path d="M160.707 328.119C163.091 328.796 165.368 329.789 167.473 331.07C167.205 332.456 167.107 333.869 167.18 335.278C167.272 337.497 167.972 339.652 169.208 341.522C170.365 343.16 171.852 344.553 173.581 345.618C174.324 346.025 175.408 346.692 175.408 346.692C174.554 347.238 173.644 347.695 172.692 348.056C170.256 348.646 163.112 348.268 158.49 344.314C153.868 340.359 150.768 332.545 150.141 326.608C153.723 326.568 157.289 327.078 160.707 328.119Z" fill="#F6F6D7"/>
<path d="M183.787 329.984C183.335 328.224 182.709 326.51 181.918 324.867C180.455 321.769 178.515 318.905 176.163 316.374C172.515 320.296 169.892 325.01 168.514 330.119C168.174 331.446 167.994 332.807 167.978 334.174C167.978 339.002 170.116 342.177 173.526 344.75C174.368 345.389 175.246 345.98 176.157 346.521C176.997 346.025 177.81 345.487 178.593 344.91C179.778 344.057 180.841 343.054 181.753 341.929C183.495 339.714 184.4 336.987 184.317 334.204C184.314 332.782 184.136 331.365 183.787 329.984Z" fill="#F6F6D7"/>
<path d="M183.288 352.234C189.355 353.286 195.494 353.895 201.655 354.058C201.424 352.47 198.567 348.982 193.872 347.772C189.177 346.562 182.91 350.824 177.722 347.814C177.265 347.51 176.772 347.261 176.254 347.07C175.801 347.258 175.365 347.484 174.951 347.743C169.951 350.175 163.137 346.563 158.448 347.743C153.758 348.923 151.091 352.465 150.86 354.029C157.022 353.876 163.163 353.276 169.233 352.234C168.953 352.003 168.743 351.704 168.624 351.367C169.671 352.547 172.887 353.792 176.206 354.601C179.573 353.798 182.977 352.435 183.897 351.219C183.819 351.615 183.604 351.973 183.288 352.234Z" fill="#F6F6D7"/>
</g>
<g opacity="0.9">
<path d="M96.9697 339.135C95.847 338.472 94.7657 337.657 93.7386 336.701C91.8316 334.958 90.1028 332.8 88.6074 330.295C91.5872 327.596 94.9325 325.965 98.3892 325.526C99.3101 325.418 100.236 325.46 101.151 325.652C102.5 325.89 103.793 326.606 104.927 327.742C106.061 328.878 107.004 330.402 107.679 332.192C108.022 333.034 108.332 333.906 108.607 334.803C108.203 335.487 107.775 336.137 107.326 336.751C106.647 337.691 105.889 338.49 105.072 339.127C103.415 340.359 101.542 340.756 99.7258 340.26C98.7829 340.039 97.8587 339.662 96.9697 339.135Z" fill="#F6F6D7"/>
<path d="M118.41 336.685C117.443 334.944 116.667 333.125 116.094 331.254C114.988 327.745 114.494 324.108 114.629 320.468C120.965 321.251 126.995 323.365 132.212 326.632C133.554 327.489 134.778 328.48 135.861 329.586C139.642 333.531 140.19 337.552 139.131 341.932C138.865 343.007 138.531 344.068 138.129 345.11C136.983 345.271 135.828 345.379 134.669 345.435C132.94 345.529 131.205 345.42 129.508 345.11C126.215 344.465 123.272 342.843 121.171 340.513C120.082 339.338 119.156 338.053 118.41 336.685Z" fill="#F6F6D7"/>
</g>
<path opacity="0.9" d="M231.35 334.512C232.467 332.724 233.407 330.834 234.156 328.869C235.593 325.19 236.453 321.318 236.706 317.385C230.507 317.635 224.459 319.347 219.072 322.377C217.687 323.179 216.4 324.136 215.239 325.23C211.186 329.14 210.223 333.419 210.774 338.231C210.917 339.416 211.128 340.591 211.406 341.752C212.497 342.031 213.602 342.254 214.717 342.42C216.378 342.682 218.068 342.724 219.742 342.547C222.987 342.152 225.997 340.673 228.269 338.358C229.447 337.2 230.481 335.909 231.35 334.512Z" fill="#F6F6D7"/>
<path opacity="0.9" d="M248.843 341.307C250.014 340.637 251.142 339.813 252.213 338.847C254.202 337.085 256.005 334.903 257.564 332.372C254.457 329.644 250.968 327.996 247.363 327.552C246.402 327.442 245.436 327.485 244.482 327.679C243.075 327.92 241.727 328.643 240.544 329.791C239.362 330.94 238.378 332.48 237.673 334.29C237.316 335.141 236.993 336.022 236.706 336.929C237.127 337.619 237.573 338.277 238.042 338.897C238.75 339.848 239.54 340.655 240.392 341.299C242.121 342.544 244.074 342.945 245.968 342.445C246.952 342.221 247.916 341.84 248.843 341.307Z" fill="#F6F6D7"/>
<path opacity="0.9" d="M115.666 5.18994C113.821 4.10746 111.871 3.1968 109.843 2.47056C106.048 1.07803 102.052 0.244962 97.9939 -9.9123e-07C98.2523 6.00777 100.019 11.8686 103.145 17.0895C103.972 18.4324 104.96 19.679 106.089 20.8042C110.123 24.7322 114.538 25.6654 119.504 25.1321C120.726 24.9933 121.939 24.7886 123.137 24.5189C123.424 23.4616 123.654 22.3908 123.826 21.3108C124.096 19.7002 124.14 18.0624 123.957 16.4408C123.549 13.2953 122.023 10.3781 119.634 8.17593C118.439 7.03472 117.107 6.03243 115.666 5.18994Z" fill="#F6F6D7"/>
<path opacity="0.9" d="M53.6196 45.8214C52.156 46.492 50.7462 47.3156 49.4072 48.2823C46.9211 50.0441 44.6674 52.2255 42.7178 54.7571C46.6025 57.4849 50.9638 59.1334 55.4702 59.5771C56.6707 59.6867 57.8777 59.644 59.0705 59.4498C60.829 59.209 62.515 58.4856 63.9932 57.3375C65.4714 56.1894 66.7005 54.6487 67.5817 52.8393C68.0281 51.988 68.432 51.1068 68.7914 50.2001C68.2645 49.5095 67.7069 48.8523 67.1208 48.2314C66.2361 47.2812 65.2481 46.4736 64.183 45.8299C62.0219 44.5849 59.5804 44.1837 57.2127 44.6843C55.9834 44.908 54.7786 45.2893 53.6196 45.8214Z" fill="#F6F6D7"/>
<path opacity="0.9" d="M226.154 4.62241C227.941 3.59728 229.815 2.76397 231.75 2.13388C235.377 0.920331 239.155 0.321625 242.954 0.358448C242.317 6.78148 240.283 12.9321 237.023 18.2927C236.168 19.6718 235.17 20.9362 234.047 22.0602C230.04 25.9887 225.864 26.6526 221.268 25.7026C220.14 25.4634 219.024 25.1544 217.926 24.7771C217.726 23.6234 217.58 22.4595 217.489 21.2901C217.343 19.5455 217.408 17.7888 217.683 16.0661C218.262 12.7208 219.871 9.70282 222.24 7.51616C223.435 6.38419 224.749 5.41278 226.154 4.62241Z" fill="#F6F6D7"/>
<path opacity="0.9" d="M286.295 45.8214C287.758 46.492 289.168 47.3156 290.507 48.2823C292.993 50.0441 295.247 52.2255 297.196 54.7571C293.312 57.4849 288.95 59.1334 284.444 59.5771C283.243 59.6867 282.036 59.644 280.844 59.4498C279.085 59.209 277.399 58.4856 275.921 57.3375C274.443 56.1894 273.214 54.6487 272.332 52.8393C271.886 51.988 271.482 51.1068 271.123 50.2001C271.65 49.5095 272.207 48.8523 272.793 48.2314C273.678 47.2812 274.666 46.4736 275.731 45.8299C277.892 44.5849 280.334 44.1837 282.701 44.6843C283.931 44.908 285.136 45.2893 286.295 45.8214Z" fill="#F6F6D7"/>
<path opacity="0.9" d="M81.4471 39.4767C80.3302 41.2647 79.3906 43.1543 78.6412 45.1194C77.2044 48.7979 76.3448 52.6702 76.092 56.6035C82.291 56.353 88.3383 54.6408 93.7254 51.6108C95.111 50.8093 96.3973 49.8519 97.5583 48.7578C101.611 44.8486 102.574 40.5692 102.024 35.7571C101.881 34.5726 101.669 33.397 101.391 32.236C100.3 31.9573 99.1954 31.7343 98.081 31.5679C96.4191 31.3064 94.7293 31.2639 93.056 31.4415C89.8104 31.8364 86.8004 33.315 84.5281 35.6307C83.3506 36.7885 82.3164 38.0795 81.4471 39.4767Z" fill="#F6F6D7"/>
<path opacity="0.9" d="M262.762 40.2119C263.771 41.9712 264.579 43.8094 265.177 45.7011C266.331 49.2478 266.846 52.924 266.705 56.6035C260.097 55.8122 253.808 53.6752 248.367 50.3723C246.968 49.5068 245.691 48.5051 244.562 47.3874C240.618 43.3992 240.047 39.335 241.151 34.9083C241.428 33.8214 241.777 32.7489 242.196 31.6957C243.391 31.533 244.596 31.4233 245.804 31.3669C247.608 31.272 249.418 31.3826 251.187 31.6957C254.622 32.3475 257.691 33.9875 259.883 36.3417C261.018 37.5298 261.984 38.829 262.762 40.2119Z" fill="#F6F6D7"/>
</svg>
