<svg width="334" height="25" viewBox="0 0 334 25" fill="none" xmlns="http://www.w3.org/2000/svg">
<path d="M321.161 8.56183C319.187 10.4515 318.841 12.3622 319.056 14.5138C321.196 14.8342 323.121 14.5699 325.094 12.6826C327.068 10.7953 328.602 7.34805 329 5C326.547 5.33209 323.135 6.67451 321.161 8.56183Z" fill="#298B82"/>
<path d="M322.502 15.9938C321.112 15.3804 320.057 15.6086 319 16.1811C319.291 17.3478 319.835 18.282 321.224 18.8933C322.612 19.5046 324.708 19.5563 326 19.2657C325.305 18.0753 323.891 16.6073 322.502 15.9938Z" fill="#298B82"/>
<path d="M12.8393 8.56183C14.8132 10.4515 15.1593 12.3622 14.9441 14.5138C12.8042 14.8342 10.8795 14.5699 8.90562 12.6826C6.93176 10.7953 5.39758 7.34805 5 5C7.45095 5.33209 10.8654 6.67451 12.8393 8.56183Z" fill="#298B82"/>
<path d="M11.4946 15.9942C12.8864 15.3801 13.9421 15.6085 15 16.1816C14.7091 17.3494 14.1641 18.2844 12.7744 18.8963C11.3847 19.5082 9.29271 19.5621 8 19.2755C8.68944 18.0776 10.105 16.6082 11.4946 15.9942Z" fill="#298B82"/>
<path d="M188 13.3462L316 13.3462" stroke="#298B82" stroke-miterlimit="10" stroke-linecap="round"/>
<path d="M22 13.3462H150" stroke="#298B82" stroke-miterlimit="10" stroke-linecap="round"/>
<path d="M177.059 6.38096L177.059 6.38102L177.066 6.379C178.491 6.00418 179.95 5.79965 181.417 5.76877C181.223 6.80737 180.832 7.95747 180.273 9.04057C179.611 10.3255 178.73 11.4833 177.7 12.2486C176.68 13.0076 175.354 13.4359 174.119 13.6416C172.901 13.8444 171.834 13.8206 171.319 13.7233C171.221 13.6908 171.124 13.6561 171.028 13.6193C171.874 13.1705 172.628 12.554 173.247 11.8052L173.247 11.8053L173.256 11.7943C173.896 10.9745 174.272 9.96656 174.333 8.9144C174.364 8.40983 174.338 7.90364 174.257 7.40597C175.154 6.96228 176.093 6.61871 177.059 6.38096Z" fill="#298B82" stroke="#298B82"/>
<path d="M161.938 6.37904L161.938 6.3791L161.946 6.381C162.911 6.61875 163.851 6.96232 164.748 7.40601C164.667 7.90369 164.641 8.40988 164.671 8.91447C164.732 9.96662 165.108 10.9745 165.749 11.7944L165.749 11.7945L165.758 11.8052C166.377 12.554 167.13 13.1706 167.977 13.6193C167.88 13.6562 167.783 13.6909 167.685 13.7233C167.17 13.8207 166.104 13.8445 164.886 13.6417C163.65 13.4359 162.325 13.0077 161.304 12.2486C160.275 11.4833 159.393 10.3259 158.73 9.04124C158.171 7.95828 157.779 6.8081 157.584 5.76868C159.052 5.79929 160.513 6.00387 161.938 6.37904Z" fill="#298B82" stroke="#298B82"/>
<path d="M172.651 6.8157L172.651 6.81678C172.807 7.33602 172.89 7.8766 172.897 8.4214L172.897 8.42385C172.907 8.95594 172.815 9.48419 172.626 9.97704C172.438 10.4699 172.158 10.9164 171.804 11.2909L171.803 11.2923C171.38 11.742 170.905 12.1321 170.389 12.4531L170.389 12.453L170.382 12.4573C170.099 12.6397 169.797 12.8156 169.476 12.9862C169.139 12.807 168.81 12.6131 168.488 12.4049C166.946 11.3924 166.057 10.2076 166.056 8.42045C166.063 7.89393 166.142 7.37143 166.291 6.86895L166.291 6.86896L166.292 6.86335C166.815 5.01356 168.121 3.02117 169.473 1.68969C170.384 2.59546 171.167 3.6362 171.796 4.7802L171.796 4.7802L171.797 4.78219C172.154 5.42378 172.44 6.10592 172.651 6.8157Z" fill="#298B82" stroke="#298B82"/>
<path d="M170.312 17.348L170.312 17.348L170.312 17.3505C170.236 17.6442 170.134 17.9291 170.006 18.2011L170.006 18.2011L170.003 18.2061C169.841 18.559 169.646 18.8928 169.42 19.2023C169.011 18.6415 168.707 18.0014 168.525 17.3151C168.474 17.1085 168.447 16.8959 168.444 16.6821C168.445 15.9703 168.733 15.5173 169.251 15.1159C169.307 15.0726 169.365 15.0306 169.423 14.9901C169.472 15.0242 169.522 15.0593 169.57 15.0954L169.57 15.0954L169.571 15.0962C169.747 15.2265 169.907 15.3811 170.045 15.5563C170.285 15.8687 170.414 16.2642 170.404 16.6721L170.404 16.6721L170.404 16.6771C170.4 16.904 170.369 17.1295 170.312 17.348Z" fill="#298B82" stroke="#298B82"/>
<path d="M164.323 15.6924C164.874 15.3424 165.357 15.2112 165.809 15.2076C166.167 15.2048 166.53 15.2822 166.918 15.4262C166.859 15.8662 166.755 16.2529 166.58 16.5975C166.363 17.0262 166.023 17.4174 165.472 17.7669C164.924 18.1141 164.181 18.3623 163.402 18.5005C162.894 18.5906 162.388 18.6309 161.936 18.6263C162.473 17.5057 163.381 16.2898 164.323 15.6924Z" fill="#298B82" stroke="#298B82"/>
<path d="M174.701 15.6935L174.701 15.6938C175.266 16.0129 175.842 16.5501 176.347 17.1797C176.687 17.6032 176.986 18.0555 177.221 18.4885C176.768 18.517 176.26 18.5034 175.748 18.44C174.964 18.3429 174.211 18.1341 173.648 17.8153C173.082 17.4941 172.724 17.1211 172.487 16.7046C172.297 16.3702 172.175 15.9904 172.095 15.555C172.476 15.3945 172.835 15.2998 173.194 15.2848C173.646 15.2659 174.134 15.3722 174.701 15.6935Z" fill="#298B82" stroke="#298B82"/>
</svg>
