<svg width="294" height="19" viewBox="0 0 294 19" fill="none" xmlns="http://www.w3.org/2000/svg">
<path d="M127.295 5.25299C128.008 5.22257 128.722 5.3494 129.476 5.58702C129.413 6.30296 129.259 6.94244 128.957 7.52078C128.607 8.1931 128.04 8.81764 127.113 9.38546C125.435 10.4129 122.795 10.916 120.728 10.896C121.06 10.1585 121.541 9.34355 122.123 8.57064C122.878 7.56596 123.779 6.66425 124.702 6.09935C125.629 5.53155 126.476 5.28793 127.295 5.25299Z" fill="#298B82" stroke="#298B82"/>
<path d="M131 4.74854H1" stroke="#298B82" stroke-miterlimit="10" stroke-linecap="round"/>
<path d="M139.923 12.6887L139.923 12.6887L139.914 12.6916C138.505 13.1374 137.042 13.3822 135.567 13.4197C135.756 12.1308 136.159 10.6968 136.741 9.35212C137.41 7.80695 138.3 6.41749 139.335 5.50062C140.356 4.59556 141.676 4.08727 142.901 3.8434C144.11 3.60261 145.161 3.63216 145.662 3.74702C145.824 3.81178 145.984 3.88306 146.14 3.96068C146.091 3.98974 146.043 4.0174 145.997 4.04262L145.984 4.04985L145.972 4.05783C145.086 4.62262 144.324 5.36192 143.731 6.23087L143.727 6.23738L143.722 6.24402C143.085 7.24462 142.724 8.39692 142.677 9.58307C142.645 10.2055 142.675 10.8293 142.767 11.4452C141.875 11.9767 140.919 12.3945 139.923 12.6887Z" fill="#298B82" stroke="#298B82"/>
<path d="M155.084 12.6916L155.084 12.6915L155.075 12.6887C154.079 12.3945 153.124 11.9767 152.232 11.4452C152.323 10.8293 152.353 10.2056 152.321 9.58318C152.274 8.39725 151.914 7.24502 151.278 6.24426L151.274 6.23749L151.269 6.23087C150.676 5.36192 149.914 4.62262 149.028 4.05783L149.016 4.04985L149.003 4.04262C148.957 4.0174 148.909 3.98973 148.86 3.96068C149.016 3.88306 149.176 3.81178 149.338 3.74702C149.839 3.63216 150.89 3.60261 152.099 3.8434C153.324 4.08727 154.644 4.59556 155.665 5.50062C156.7 6.41749 157.59 7.80695 158.259 9.35212C158.841 10.6968 159.244 12.1309 159.433 13.4197C157.958 13.3824 156.494 13.1376 155.084 12.6916Z" fill="#298B82" stroke="#298B82"/>
<path d="M145.226 14.57L145.226 14.57L145.224 14.5653C144.856 13.7797 144.564 12.9605 144.353 12.1189C144.192 11.4757 144.108 10.8156 144.102 10.1525C144.103 8.67258 144.518 7.55309 145.227 6.62646C145.637 6.10347 146.114 5.63747 146.646 5.24065L146.646 5.24066L146.649 5.23852C146.933 5.02369 147.225 4.82041 147.525 4.62919C147.854 4.83826 148.173 5.06208 148.482 5.29998C150.02 6.50546 150.949 7.94557 150.95 10.1573C150.943 10.7959 150.861 11.4316 150.708 12.0515L150.708 12.0515L150.707 12.056C150.181 14.2743 148.88 16.6455 147.533 18.236C146.604 17.1243 145.828 15.8913 145.226 14.57Z" fill="#298B82" stroke="#298B82"/>
<path d="M150.756 1.93333L151.378 1.58023C153.498 1.1852 156.475 0.900182 158.896 0.795696C158.756 1.01906 158.555 1.27636 158.286 1.54174C157.727 2.09416 156.919 2.62881 155.887 2.90561C155.409 3.03375 154.853 3.0402 154.217 2.97781C153.739 2.93083 153.246 2.84888 152.728 2.76264C152.553 2.73354 152.376 2.70397 152.195 2.67508C150.81 2.45413 149.24 2.2708 147.879 2.95655L147.854 2.96894L147.831 2.98395C147.714 3.06036 147.592 3.13 147.467 3.19257C147.324 3.1272 147.186 3.04994 147.055 2.96152L147.044 2.95398L147.032 2.94705C145.61 2.09456 144.065 2.2936 142.716 2.56203C142.492 2.60661 142.276 2.65261 142.065 2.69744C141.616 2.79293 141.192 2.88312 140.771 2.94301C140.162 3.02957 139.629 3.0397 139.161 2.91458C138.127 2.63796 137.294 2.10117 136.709 1.54509C136.441 1.28986 136.229 1.0348 136.076 0.805566C138.398 0.906859 141.235 1.17492 143.331 1.54469C143.329 1.55515 143.326 1.56564 143.324 1.57617L144.219 1.97123C144.275 1.89407 144.399 1.77874 144.618 1.63783C144.83 1.50154 145.101 1.35981 145.419 1.21951C146.02 0.953473 146.757 0.70587 147.5 0.515772C148.235 0.705893 148.945 0.942669 149.53 1.19515C150.168 1.47112 150.585 1.73596 150.756 1.93333Z" fill="#298B82" stroke="#298B82"/>
<path d="M166.887 9.38485C165.96 8.81711 165.393 8.19266 165.043 7.52046C164.741 6.9422 164.587 6.30282 164.524 5.58698C165.278 5.34939 165.992 5.22257 166.705 5.25299C167.524 5.28793 168.371 5.53153 169.298 6.09927C170.221 6.66411 171.122 7.56573 171.878 8.57031C172.459 9.34332 172.94 10.1584 173.272 10.8959C171.206 10.9171 168.563 10.4102 166.887 9.38485Z" fill="#298B82" stroke="#298B82"/>
<path d="M293 4.74857L163 4.74854" stroke="#298B82" stroke-miterlimit="10" stroke-linecap="round"/>
</svg>
