<svg width="108" height="107" viewBox="0 0 108 107" fill="none" xmlns="http://www.w3.org/2000/svg">
<g filter="url(#filter0_d_24_79)">
<path d="M41.0197 0.000151261C40.9971 0.00175304 40.9745 0.00381137 40.952 0.00632487C40.9326 0.00804712 40.9133 0.0101053 40.894 0.0124985C40.8756 0.0163084 40.8574 0.0204248 40.8392 0.0248457C40.8219 0.026638 40.8047 0.0286961 40.7876 0.0310193C40.7584 0.0364232 40.7294 0.0425992 40.7005 0.0495402C40.6054 0.0722674 40.5126 0.103264 40.4233 0.142144C40.4082 0.149121 40.3931 0.156324 40.3782 0.163752C40.3421 0.179977 40.3066 0.197481 40.2718 0.216228C40.2632 0.22027 40.2546 0.224386 40.246 0.228575C40.2187 0.244271 40.1918 0.260741 40.1654 0.277964C40.1413 0.294823 40.1176 0.312321 40.0945 0.330439C40.0837 0.336493 40.0729 0.342667 40.0623 0.34896C40.0414 0.366966 40.0209 0.385493 40.001 0.404523C39.9835 0.418576 39.9663 0.432985 39.9495 0.447738C39.7913 0.597711 39.6672 0.777435 39.5852 0.975582L36.7968 6.31576L36.7645 6.32502C36.4744 6.40527 36.1424 6.44849 35.6137 6.86212C35.5732 6.89625 35.5344 6.93231 35.4977 6.97016C35.456 7.00421 35.4162 7.04027 35.3784 7.0782L30.8654 12.3566L31.091 12.1498C30.9685 12.2424 30.8751 12.3659 30.7687 12.4739C30.7017 12.5056 30.637 12.5417 30.5753 12.582C20.176 18.5519 13.8029 21.1695 9.67996 24.1575C7.61687 25.6515 6.10178 27.3184 5.2024 29.4514C4.29979 31.5813 4 34.0816 4 37.3382C4.08381 58.9427 3.97421 69.4409 4.01934 91.0609C4.01934 91.4703 4.18916 91.8628 4.49143 92.1523C4.79369 92.4417 5.20366 92.6043 5.63114 92.6043H20.1308V97.2345C20.1308 97.6439 20.3006 98.0364 20.6029 98.3259C20.9052 98.6153 21.3152 98.7779 21.7426 98.7779H46.7996C49.7653 98.7779 52.3861 97.3457 53.9785 95.1787C54.7856 96.2871 55.8597 97.1929 57.1099 97.8194C58.3601 98.4459 59.7496 98.7747 61.1607 98.7779H67.6143C67.6379 98.7805 67.6615 98.7825 67.6852 98.7841L86.2208 98.7779C86.6483 98.7779 87.0583 98.6153 87.3605 98.3259C87.6628 98.0364 87.8326 97.6439 87.8326 97.2345V92.6043H102.326C102.751 92.6027 103.158 92.4402 103.459 92.1523C103.76 91.8643 103.93 91.4743 103.931 91.0671C103.938 88.7612 103.931 87.4185 103.931 85.338C104.023 85.0471 104.023 84.7368 103.931 84.4459C103.941 67.5981 103.876 56.285 103.951 37.3412C103.953 37.3402 103.955 37.3392 103.957 37.3382C103.957 34.0816 103.648 31.5905 102.748 29.4575C101.846 27.3276 100.33 25.6515 98.2706 24.1575C94.1476 21.1695 87.781 18.5519 77.3818 12.582C77.3015 12.537 77.2174 12.4988 77.1303 12.4678C77.0304 12.3628 76.9691 12.2579 76.8402 12.156L77.0594 12.3659L72.5528 7.08437C72.4822 7.00491 72.4034 6.93252 72.3175 6.86829C71.7953 6.46084 71.4665 6.41762 71.1796 6.33736L68.4975 1.19474C68.4144 0.851461 68.2111 0.545755 67.9214 0.328436C67.6317 0.111116 67.2731 -0.00472955 66.9051 0.000151261H41.1099C41.0949 -5.04203e-05 41.0799 -5.04203e-05 41.0648 0.000151261C41.0498 -5.04203e-05 41.0347 -5.04203e-05 41.0197 0.000151261ZM61.2574 3.08078L53.9785 7.43935L46.6996 3.08696L61.2574 3.08078ZM66.2314 3.75062L68.0882 7.31897L60.5321 13.3413L60.1936 13.0172C60.0791 12.8556 59.9336 12.7163 59.7648 12.6067L56.5541 9.53838L66.2314 3.75062ZM41.7321 3.75679L51.4158 9.54455L48.1245 12.6931C48.1223 12.6941 48.1202 12.6951 48.118 12.6962C48.0753 12.7301 48.0344 12.7662 47.9955 12.8042C47.958 12.8416 47.9225 12.8807 47.8891 12.9215L47.4378 13.3475L39.8753 7.31279L41.7321 3.75679ZM36.8322 10.2607L47.6828 39.7119C47.7099 39.9387 47.7892 40.1569 47.9149 40.3509L52.2088 52.0067C52.2003 51.9942 52.1917 51.9818 52.183 51.9696L36.5131 29.9916L38.6471 24.3859C38.7251 24.1806 38.7567 23.9619 38.7398 23.744C38.7229 23.5262 38.6579 23.3143 38.5491 23.1223C38.4403 22.9303 38.2902 22.7626 38.1088 22.6303C37.9273 22.498 37.7185 22.4041 37.4963 22.3548L33.0477 21.3794L33.1509 14.7119C33.1523 14.6531 33.1501 14.5944 33.1445 14.5359C33.2247 14.4709 33.2981 14.3985 33.3637 14.3198L36.8322 10.2607ZM71.099 10.2607L74.5643 14.3229C74.6302 14.3995 74.7036 14.4698 74.7835 14.5328C74.6224 14.4094 74.7932 14.5637 74.8577 14.7273C74.9286 14.8909 74.9222 15.1132 74.9415 14.9249C74.937 14.9731 74.9348 15.0215 74.935 15.0699L74.9028 21.3763L70.4317 22.3641C70.2089 22.4126 69.9995 22.506 69.8172 22.638C69.635 22.77 69.4842 22.9376 69.3747 23.1297C69.2653 23.3218 69.1998 23.5339 69.1825 23.7521C69.1652 23.9703 69.1965 24.1895 69.2744 24.3952L71.4149 29.9977L55.745 51.9758C55.7364 51.9829 55.7278 51.9901 55.7192 51.9974L71.0958 10.2638L71.099 10.2607ZM53.9817 11.4429L56.2963 13.6562L54.0075 15.1193L51.6865 13.6438L53.9817 11.4429ZM40.9584 12.1899L46.503 16.6164C46.8119 16.8635 47.2061 16.991 47.6081 16.9739C48.0102 16.9568 48.391 16.7962 48.6757 16.5238L49.098 16.1225L48.147 31.7109L40.9584 12.1899ZM66.947 12.2455L59.8132 31.6214L58.8655 16.1164L59.291 16.5269C59.5757 16.7993 59.9565 16.9599 60.3586 16.977C60.7606 16.9941 61.1548 16.8666 61.4637 16.6195L66.947 12.2455ZM29.8951 16.5146L29.7984 22.577C29.793 22.9312 29.915 23.2763 30.1439 23.5546C30.3729 23.8328 30.6947 24.0271 31.0556 24.105L34.9883 24.9693L33.4733 28.976C33.4711 28.978 33.469 28.9801 33.4668 28.9822C33.1928 29.7076 33.2154 30.5194 33.5345 31.2355C33.5762 31.3264 33.6269 31.4133 33.686 31.4948L49.4397 53.6025C49.7105 54.2137 50.3681 55.5657 51.0579 56.9857C51.7349 58.3778 52.2893 59.5076 52.3732 59.6743V90.3571C52.3732 93.3359 49.9136 95.6911 46.7996 95.6911H23.3544V91.3819C23.4014 91.1703 23.4014 90.9515 23.3544 90.7399V85.3071C23.4361 85.0317 23.4361 84.7399 23.3544 84.4644V42.5147C23.3584 42.2043 23.2646 41.8999 23.0851 41.6413C22.9057 41.3828 22.649 41.182 22.3485 41.0653C22.0481 40.9487 21.7178 40.9215 21.401 40.9873C21.0842 41.0531 20.7954 41.2089 20.5725 41.4343C20.2841 41.7258 20.1257 42.1133 20.1308 42.5147V83.3439H7.23003C7.22359 67.1227 7.29451 55.8466 7.22359 37.332C7.22359 34.273 7.52983 32.177 8.19066 30.6089C8.85472 29.0408 9.85726 27.8987 11.6238 26.6177C14.8732 24.2624 20.811 21.5985 29.8951 16.5146ZM78.1522 16.5794C87.1782 21.6263 93.0838 24.2717 96.3203 26.6177C98.0869 27.8987 99.0991 29.0408 99.7631 30.6089C100.427 32.177 100.727 34.2668 100.727 37.332C100.653 55.8436 100.721 67.1258 100.714 83.3439H87.8326V42.5147C87.8366 42.2043 87.7428 41.8999 87.5633 41.6413C87.3839 41.3828 87.1272 41.182 86.8267 41.0653C86.5263 40.9487 86.1961 40.9215 85.8792 40.9873C85.5624 41.0531 85.2736 41.2089 85.0507 41.4343C84.7623 41.7258 84.6039 42.1133 84.609 42.5147V90.6627C84.5363 90.9236 84.5363 91.1982 84.609 91.4591V95.6911H61.1607C60.4276 95.6965 59.7008 95.562 59.0226 95.2956C58.3444 95.0292 57.7284 94.6361 57.2105 94.1393C56.6926 93.6425 56.2831 93.0519 56.0061 92.4021C55.729 91.7522 55.5899 91.056 55.5967 90.354V59.6064L56.8668 56.9826C57.5567 55.5657 58.2078 54.223 58.4786 53.6087L74.2452 31.5072C74.3069 31.4239 74.3598 31.335 74.4032 31.2417C74.718 30.5242 74.7376 29.7191 74.458 28.9883C74.4601 28.9863 74.4623 28.9842 74.4644 28.9822L72.9364 24.9786L76.8756 24.1112C77.2311 24.0344 77.5488 23.8447 77.7772 23.5728C78.0055 23.3009 78.1308 22.963 78.1328 22.6141L78.1522 16.5794ZM52.241 17.6999L53.1146 18.2617C53.3788 18.4296 53.6888 18.5192 54.0059 18.5192C54.323 18.5192 54.633 18.4296 54.8972 18.2617L55.7354 17.7308L56.9829 38.0172L57.0474 39.147L53.9656 47.5123L50.9129 39.2242L52.241 17.6999ZM74.9447 46.3022C74.7321 46.3007 74.5212 46.3394 74.3242 46.4162C74.1273 46.493 73.9481 46.6064 73.7971 46.7498L67.8174 52.4758H66.9051C66.6879 52.4714 66.472 52.509 66.2703 52.5864C66.0687 52.6639 65.8855 52.7796 65.7317 52.9265C65.5036 53.1442 65.3489 53.4223 65.2874 53.725C65.226 54.0277 65.2606 54.3411 65.3869 54.6248C65.5131 54.9085 65.7252 55.1494 65.9958 55.3166C66.2664 55.4837 66.5831 55.5694 66.9051 55.5627H68.2525C68.3938 55.5807 68.5368 55.5807 68.6781 55.5627H77.7073C78.0271 55.6607 78.3708 55.6607 78.6905 55.5627H79.793C80.2205 55.5627 80.6304 55.4 80.9327 55.1106C81.235 54.8212 81.4048 54.4286 81.4048 54.0192C81.4048 53.6099 81.235 53.2173 80.9327 52.9279C80.6304 52.6385 80.2205 52.4758 79.793 52.4758H79.1547L76.3728 47.1573C76.2402 46.9025 76.0367 46.6878 75.7847 46.5369C75.5326 46.386 75.2419 46.3048 74.9447 46.3022ZM74.4966 50.4447L75.554 52.4758H72.3755L74.4966 50.4447ZM47.5378 70.9967C47.1103 70.9967 46.7003 71.1593 46.3981 71.4487C46.0958 71.7382 45.926 72.1308 45.926 72.5401C45.926 72.9494 46.0958 73.342 46.3981 73.6314C46.7003 73.9209 47.1103 74.0835 47.5378 74.0835C47.9652 74.0835 48.3752 73.9209 48.6775 73.6314C48.9798 73.342 49.1496 72.9494 49.1496 72.5401C49.1496 72.1308 48.9798 71.7382 48.6775 71.4487C48.3752 71.1593 47.9652 70.9967 47.5378 70.9967ZM47.5378 77.1703C47.1103 77.1703 46.7003 77.3329 46.3981 77.6223C46.0958 77.9118 45.926 78.3044 45.926 78.7137C45.926 79.123 46.0958 79.5156 46.3981 79.805C46.7003 80.0945 47.1103 80.2571 47.5378 80.2571C47.9652 80.2571 48.3752 80.0945 48.6775 79.805C48.9798 79.5156 49.1496 79.123 49.1496 78.7137C49.1496 78.3044 48.9798 77.9118 48.6775 77.6223C48.3752 77.3329 47.9652 77.1703 47.5378 77.1703ZM47.5378 83.3439C47.1103 83.3439 46.7003 83.5065 46.3981 83.796C46.0958 84.0854 45.926 84.478 45.926 84.8873C45.926 85.2966 46.0958 85.6892 46.3981 85.9787C46.7003 86.2681 47.1103 86.4307 47.5378 86.4307C47.9652 86.4307 48.3752 86.2681 48.6775 85.9787C48.9798 85.6892 49.1496 85.2966 49.1496 84.8873C49.1496 84.478 48.9798 84.0854 48.6775 83.796C48.3752 83.5065 47.9652 83.3439 47.5378 83.3439ZM7.23003 86.4307H20.1308V89.5175H7.23003V86.4307ZM87.8326 86.4307H100.714V89.5175H87.8326V86.4307Z" fill="#325338"/>
</g>
<defs>
<filter id="filter0_d_24_79" x="0" y="0" width="108" height="106.784" filterUnits="userSpaceOnUse" color-interpolation-filters="sRGB">
<feFlood flood-opacity="0" result="BackgroundImageFix"/>
<feColorMatrix in="SourceAlpha" type="matrix" values="0 0 0 0 0 0 0 0 0 0 0 0 0 0 0 0 0 0 127 0" result="hardAlpha"/>
<feOffset dy="4"/>
<feGaussianBlur stdDeviation="2"/>
<feComposite in2="hardAlpha" operator="out"/>
<feColorMatrix type="matrix" values="0 0 0 0 0 0 0 0 0 0 0 0 0 0 0 0 0 0 0.25 0"/>
<feBlend mode="normal" in2="BackgroundImageFix" result="effect1_dropShadow_24_79"/>
<feBlend mode="normal" in="SourceGraphic" in2="effect1_dropShadow_24_79" result="shape"/>
</filter>
</defs>
</svg>
