<svg width="46" height="45" viewBox="0 0 46 45" fill="none" xmlns="http://www.w3.org/2000/svg">
<path d="M28.9719 8.52186C28.9719 10.6312 26.0094 12.1031 25.3906 12.3844C25.0531 12.2156 24.7344 12.0281 24.4531 11.8312C24.6297 11.4658 24.6935 11.056 24.6363 10.6542C24.5791 10.2523 24.4035 9.87661 24.132 9.57492C23.8605 9.27322 23.5053 9.05921 23.1117 8.96016C22.7181 8.8611 22.3039 8.8815 21.9219 9.01874C21.791 8.59906 21.8072 8.14729 21.9678 7.73807C22.1284 7.32885 22.4239 6.98667 22.8053 6.76809C23.1867 6.54951 23.6313 6.4676 24.0656 6.53591C24.4999 6.60421 24.8978 6.81863 25.1938 7.14374C25.2598 7.2057 25.3469 7.24018 25.4375 7.24018C25.5281 7.24018 25.6152 7.2057 25.6813 7.14374C26.0449 6.78192 26.537 6.57881 27.05 6.57881C27.563 6.57881 28.0551 6.78192 28.4188 7.14374C28.7768 7.51274 28.9755 8.00771 28.9719 8.52186Z" fill="white"/>
<path d="M23.9375 11.0344C23.9375 12.75 21.4813 13.9687 21.05 14.2031C15.6219 11.4562 19.0906 8.24062 20.7781 9.95625C20.8514 10.0262 20.9487 10.0652 21.05 10.0652C21.1513 10.0652 21.2486 10.0262 21.3219 9.95625C21.5368 9.74482 21.8091 9.60124 22.105 9.54338C22.4009 9.48552 22.7073 9.51592 22.986 9.63082C23.2648 9.74571 23.5036 9.94002 23.6727 10.1896C23.8419 10.4391 23.934 10.7329 23.9375 11.0344Z" fill="white"/>
<path d="M22.5031 36.3374C20.7939 37.5369 18.7911 38.2499 16.7085 38.4001C14.6258 38.5503 12.5414 38.1321 10.6778 37.1903C8.81418 36.2485 7.24128 34.8183 6.12696 33.0524C5.01264 31.2865 4.39873 29.2512 4.35075 27.1636C4.30278 25.0761 4.82253 23.0147 5.85455 21.1995C6.88656 19.3843 8.3921 17.8833 10.2105 16.8569C12.0289 15.8304 14.0918 15.317 16.1792 15.3713C18.2666 15.4257 20.3 16.0458 22.0625 17.1656C21.4811 17.6439 20.9445 18.1742 20.4594 18.7499C18.4694 17.609 16.1302 17.2372 13.8846 17.705C11.6389 18.1727 9.64271 19.4476 8.27379 21.2882C6.90487 23.1288 6.25825 25.4073 6.45634 27.6926C6.65444 29.9779 7.6835 32.1112 9.34871 33.6888C11.0139 35.2664 13.1997 36.1787 15.4924 36.2531C17.785 36.3274 20.0254 35.5587 21.7893 34.0923C23.5533 32.626 24.7184 30.5638 25.0642 28.2962C25.41 26.0286 24.9124 23.7129 23.6656 21.7874C24.1273 21.1928 24.6701 20.6658 25.2781 20.2218C26.157 21.4612 26.7825 22.8618 27.1187 24.3435C27.455 25.8252 27.4953 27.3586 27.2375 28.8559C26.9797 30.3532 26.4288 31.7849 25.6163 33.0688C24.8039 34.3526 23.7459 35.4634 22.5031 36.3374Z" fill="white"/>
<path d="M36.8 36.3094C34.9233 37.6236 32.6979 38.3494 30.4073 38.3945C28.1167 38.4396 25.8644 37.8018 23.9375 36.5625C24.5256 36.0816 25.0657 35.5447 25.55 34.9594C27.5416 36.0981 29.8815 36.4671 32.1269 35.9964C34.3722 35.5257 36.367 34.248 37.7336 32.4053C39.1001 30.5627 39.7436 28.2829 39.5422 25.9976C39.3407 23.7123 38.3083 21.5803 36.6405 20.0051C34.9726 18.4299 32.7851 17.5209 30.492 17.4502C28.199 17.3796 25.9597 18.1522 24.198 19.6218C22.4364 21.0913 21.2747 23.1558 20.933 25.4243C20.5912 27.6929 21.0932 30.008 22.3438 31.9313C21.8791 32.5233 21.3367 33.0499 20.7313 33.4969C19.4179 31.6276 18.6883 29.4109 18.6349 27.127C18.5814 24.8431 19.2065 22.5946 20.431 20.666C21.6555 18.7373 23.4245 17.2151 25.5142 16.2919C27.6038 15.3687 29.9204 15.0859 32.1708 15.4793C34.4212 15.8728 36.5044 16.9247 38.1569 18.5022C39.8094 20.0796 40.957 22.1117 41.4545 24.3414C41.952 26.5711 41.7771 28.8983 40.952 31.0286C40.1268 33.1589 38.6884 34.9966 36.8188 36.3094H36.8Z" fill="white"/>
</svg>
